# Blender 3.6.2
# www.blender.org
mtllib book.mtl
o Plane.004
v -0.026021 0.066993 1.738791
v 2.211714 -0.227482 1.738791
v -0.026021 0.066993 -1.738791
v 2.211713 -0.227482 -1.738791
v 0.025853 0.096564 1.738791
v 0.079898 0.125234 1.738791
v 0.134558 0.152044 1.738791
v 0.189790 0.176976 1.738791
v 0.245553 0.200009 1.738791
v 0.301803 0.221128 1.738791
v 0.358497 0.240316 1.738791
v 0.415592 0.257560 1.738791
v 0.473044 0.272847 1.738791
v 0.530808 0.286165 1.738791
v 0.588840 0.297505 1.738791
v 0.647097 0.306858 1.738791
v 0.705533 0.314219 1.738791
v 0.764103 0.319582 1.738791
v 0.822763 0.322944 1.738791
v 0.881467 0.324302 1.738791
v 0.940171 0.323656 1.738791
v 0.998830 0.321008 1.738791
v 1.057399 0.316360 1.738791
v 1.115832 0.309715 1.738791
v 1.174086 0.301080 1.738791
v 1.232116 0.290461 1.738791
v 1.289878 0.277868 1.738791
v 1.347327 0.263311 1.738791
v 1.404419 0.246800 1.738791
v 1.461111 0.228351 1.738791
v 1.517359 0.207976 1.738791
v 1.573122 0.185693 1.738791
v 1.628355 0.161519 1.738791
v 1.683017 0.135473 1.738791
v 1.737066 0.107575 1.738791
v 1.790462 0.077847 1.738791
v 1.843162 0.046313 1.738791
v 1.895128 0.012997 1.738791
v 1.946320 -0.022074 1.738791
v 1.996698 -0.058874 1.738791
v 2.043799 -0.095359 1.738791
v 2.085778 -0.128390 1.738791
v 2.127757 -0.161421 1.738791
v 2.169735 -0.194452 1.738791
v 2.169734 -0.194452 -1.738791
v 2.127756 -0.161421 -1.738791
v 2.085778 -0.128390 -1.738791
v 2.043799 -0.095359 -1.738791
v 1.996697 -0.058874 -1.738791
v 1.946319 -0.022074 -1.738791
v 1.895127 0.012997 -1.738791
v 1.843162 0.046313 -1.738791
v 1.790461 0.077847 -1.738791
v 1.737066 0.107575 -1.738791
v 1.683016 0.135473 -1.738791
v 1.628354 0.161519 -1.738791
v 1.573121 0.185693 -1.738791
v 1.517359 0.207976 -1.738791
v 1.461110 0.228351 -1.738791
v 1.404418 0.246800 -1.738791
v 1.347326 0.263311 -1.738791
v 1.289878 0.277868 -1.738791
v 1.232116 0.290461 -1.738791
v 1.174086 0.301080 -1.738791
v 1.115832 0.309715 -1.738791
v 1.057398 0.316360 -1.738791
v 0.998830 0.321008 -1.738791
v 0.940171 0.323657 -1.738791
v 0.881467 0.324302 -1.738791
v 0.822762 0.322944 -1.738791
v 0.764102 0.319582 -1.738791
v 0.705532 0.314219 -1.738791
v 0.647096 0.306858 -1.738791
v 0.588840 0.297505 -1.738791
v 0.530807 0.286165 -1.738791
v 0.473043 0.272847 -1.738791
v 0.415592 0.257560 -1.738791
v 0.358497 0.240317 -1.738791
v 0.301803 0.221128 -1.738791
v 0.245553 0.200009 -1.738791
v 0.189790 0.176976 -1.738791
v 0.134558 0.152044 -1.738791
v 0.079898 0.125234 -1.738791
v 0.025852 0.096564 -1.738791
v -2.317098 -0.258819 1.741616
v -2.317098 0.052768 1.741616
v -2.317098 -0.204271 -1.737030
v -2.317098 0.060442 -1.737030
v -0.014154 -0.258819 1.741616
v -0.014154 0.052768 1.741616
v -0.014154 -0.204271 -1.737030
v -0.014154 0.060442 -1.737030
v -0.026021 0.054813 1.738791
v 2.222973 -0.256605 1.738791
v -0.026021 0.054813 -1.738791
v 2.222972 -0.256605 -1.738791
v 0.007504 0.063421 1.738791
v 0.062282 0.092813 1.738791
v 0.117682 0.120299 1.738791
v 0.173663 0.145858 1.738791
v 0.230181 0.169471 1.738791
v 0.287192 0.191122 1.738791
v 0.344655 0.210793 1.738791
v 0.402523 0.228471 1.738791
v 0.460752 0.244142 1.738791
v 0.519299 0.257796 1.738791
v 0.578118 0.269422 1.738791
v 0.637163 0.279011 1.738791
v 0.696391 0.286557 1.738791
v 0.755754 0.292055 1.738791
v 0.815208 0.295501 1.738791
v 0.874708 0.296894 1.738791
v 0.934207 0.296232 1.738791
v 0.993661 0.293517 1.738791
v 1.053023 0.288751 1.738791
v 1.112248 0.281939 1.738791
v 1.171291 0.273086 1.738791
v 1.230107 0.262200 1.738791
v 1.288651 0.249291 1.738791
v 1.346878 0.234366 1.738791
v 1.404743 0.217440 1.738791
v 1.462203 0.198526 1.738791
v 1.519213 0.177639 1.738791
v 1.575731 0.154795 1.738791
v 1.631712 0.130011 1.738791
v 1.687114 0.103309 1.738791
v 1.741896 0.074709 1.738791
v 1.796015 0.044233 1.738791
v 1.849429 0.011905 1.738791
v 1.902099 -0.022250 1.738791
v 1.953984 -0.058204 1.738791
v 2.005044 -0.095931 1.738791
v 2.052784 -0.133335 1.738791
v 2.095332 -0.167197 1.738791
v 2.137879 -0.201060 1.738791
v 2.180426 -0.222743 1.738791
v 2.180425 -0.222743 -1.738791
v 2.137878 -0.201060 -1.738791
v 2.095331 -0.167197 -1.738791
v 2.052784 -0.133335 -1.738791
v 2.005044 -0.095931 -1.738791
v 1.953984 -0.058204 -1.738791
v 1.902099 -0.022250 -1.738791
v 1.849429 0.011905 -1.738791
v 1.796014 0.044233 -1.738791
v 1.741896 0.074709 -1.738791
v 1.687114 0.103309 -1.738791
v 1.631711 0.130012 -1.738791
v 1.575730 0.154795 -1.738791
v 1.519213 0.177639 -1.738791
v 1.462202 0.198526 -1.738791
v 1.404742 0.217440 -1.738791
v 1.346877 0.234366 -1.738791
v 1.288650 0.249290 -1.738791
v 1.230106 0.262201 -1.738791
v 1.171291 0.273086 -1.738791
v 1.112247 0.281939 -1.738791
v 1.053022 0.288751 -1.738791
v 0.993660 0.293517 -1.738791
v 0.934207 0.296232 -1.738791
v 0.874708 0.296894 -1.738791
v 0.815208 0.295501 -1.738791
v 0.755754 0.292055 -1.738791
v 0.696390 0.286557 -1.738791
v 0.637163 0.279011 -1.738791
v 0.578117 0.269421 -1.738791
v 0.519299 0.257796 -1.738791
v 0.460752 0.244143 -1.738791
v 0.402522 0.228471 -1.738791
v 0.344655 0.210793 -1.738791
v 0.287192 0.191122 -1.738791
v 0.230181 0.169471 -1.738791
v 0.173663 0.145858 -1.738791
v 0.117682 0.120298 -1.738791
v 0.062282 0.092813 -1.738791
v 0.007504 0.063421 -1.738791
v -0.026021 0.046553 1.738791
v 2.211714 -0.247922 1.738791
v -0.026021 0.046553 -1.738791
v 2.211713 -0.247922 -1.738791
v 0.025853 0.076124 1.738791
v 0.079898 0.104794 1.738791
v 0.134558 0.131605 1.738791
v 0.189790 0.156536 1.738791
v 0.245553 0.179570 1.738791
v 0.301803 0.200689 1.738791
v 0.358497 0.219877 1.738791
v 0.415592 0.237121 1.738791
v 0.473044 0.252407 1.738791
v 0.530808 0.265725 1.738791
v 0.588840 0.277065 1.738791
v 0.647097 0.286419 1.738791
v 0.705533 0.293780 1.738791
v 0.764103 0.299143 1.738791
v 0.822763 0.302504 1.738791
v 0.881467 0.303863 1.738791
v 0.940171 0.303217 1.738791
v 0.998830 0.300569 1.738791
v 1.057399 0.295920 1.738791
v 1.115832 0.289275 1.738791
v 1.174086 0.280640 1.738791
v 1.232116 0.270022 1.738791
v 1.289878 0.257429 1.738791
v 1.347327 0.242871 1.738791
v 1.404419 0.226361 1.738791
v 1.461111 0.207911 1.738791
v 1.517359 0.187537 1.738791
v 1.573122 0.165254 1.738791
v 1.628355 0.141079 1.738791
v 1.683017 0.115033 1.738791
v 1.737066 0.087135 1.738791
v 1.790462 0.057407 1.738791
v 1.843162 0.025873 1.738791
v 1.895128 -0.007442 1.738791
v 1.946320 -0.042514 1.738791
v 1.996698 -0.079314 1.738791
v 2.043799 -0.115799 1.738791
v 2.085778 -0.148830 1.738791
v 2.127757 -0.181860 1.738791
v 2.169735 -0.214891 1.738791
v 2.169734 -0.214891 -1.738791
v 2.127756 -0.181860 -1.738791
v 2.085778 -0.148829 -1.738791
v 2.043799 -0.115799 -1.738791
v 1.996697 -0.079314 -1.738791
v 1.946319 -0.042514 -1.738791
v 1.895127 -0.007442 -1.738791
v 1.843162 0.025874 -1.738791
v 1.790461 0.057407 -1.738791
v 1.737066 0.087135 -1.738791
v 1.683016 0.115033 -1.738791
v 1.628354 0.141080 -1.738791
v 1.573121 0.165254 -1.738791
v 1.517359 0.187537 -1.738791
v 1.461110 0.207911 -1.738791
v 1.404418 0.226361 -1.738791
v 1.347326 0.242871 -1.738791
v 1.289878 0.257428 -1.738791
v 1.232116 0.270022 -1.738791
v 1.174086 0.280640 -1.738791
v 1.115832 0.289275 -1.738791
v 1.057398 0.295920 -1.738791
v 0.998830 0.300569 -1.738791
v 0.940171 0.303217 -1.738791
v 0.881467 0.303863 -1.738791
v 0.822762 0.302504 -1.738791
v 0.764102 0.299143 -1.738791
v 0.705532 0.293780 -1.738791
v 0.647096 0.286419 -1.738791
v 0.588840 0.277065 -1.738791
v 0.530807 0.265725 -1.738791
v 0.473043 0.252407 -1.738791
v 0.415592 0.237121 -1.738791
v 0.358497 0.219877 -1.738791
v 0.301803 0.200689 -1.738791
v 0.245553 0.179570 -1.738791
v 0.189790 0.156536 -1.738791
v 0.134558 0.131605 -1.738791
v 0.079898 0.104794 -1.738791
v 0.025852 0.076124 -1.738791
vn -0.6184 -0.7859 -0.0000
vn 0.4952 -0.8688 -0.0000
vn 0.4686 -0.8834 -0.0000
vn 0.4404 -0.8978 -0.0000
vn 0.4114 -0.9114 -0.0000
vn 0.3818 -0.9243 -0.0000
vn 0.3515 -0.9362 -0.0000
vn 0.3206 -0.9472 -0.0000
vn 0.2891 -0.9573 -0.0000
vn 0.2571 -0.9664 -0.0000
vn 0.2247 -0.9744 -0.0000
vn 0.1918 -0.9814 -0.0000
vn 0.1585 -0.9874 -0.0000
vn 0.1250 -0.9922 -0.0000
vn 0.0912 -0.9958 -0.0000
vn 0.0572 -0.9984 -0.0000
vn 0.0231 -0.9997 -0.0000
vn -0.0110 -0.9999 -0.0000
vn -0.0451 -0.9990 -0.0000
vn -0.0791 -0.9969 -0.0000
vn -0.1130 -0.9936 -0.0000
vn -0.1466 -0.9892 -0.0000
vn -0.1800 -0.9837 -0.0000
vn -0.2130 -0.9770 -0.0000
vn -0.2456 -0.9694 -0.0000
vn -0.2778 -0.9606 -0.0000
vn -0.3095 -0.9509 -0.0000
vn -0.3406 -0.9402 -0.0000
vn -0.3711 -0.9286 -0.0000
vn -0.4010 -0.9161 -0.0000
vn -0.4302 -0.9028 -0.0000
vn -0.4587 -0.8886 -0.0000
vn -0.4864 -0.8737 -0.0000
vn -0.5135 -0.8581 -0.0000
vn -0.5397 -0.8418 -0.0000
vn -0.5652 -0.8250 -0.0000
vn -0.5899 -0.8075 -0.0000
vn -0.6124 -0.7906 -0.0000
vn -1.0000 -0.0000 -0.0000
vn -0.0000 -0.0000 -1.0000
vn 1.0000 -0.0000 -0.0000
vn -0.0000 -0.0000 1.0000
vn -0.0000 -0.9999 -0.0157
vn -0.0000 1.0000 0.0022
vn 0.6227 0.7824 -0.0000
vn -0.2487 0.9686 -0.0000
vn -0.4728 0.8812 -0.0000
vn -0.4444 0.8958 -0.0000
vn -0.4153 0.9097 -0.0000
vn -0.3855 0.9227 -0.0000
vn -0.3550 0.9349 -0.0000
vn -0.3239 0.9461 -0.0000
vn -0.2922 0.9564 -0.0000
vn -0.2599 0.9656 -0.0000
vn -0.2271 0.9739 -0.0000
vn -0.1939 0.9810 -0.0000
vn -0.1603 0.9871 -0.0000
vn -0.1264 0.9920 -0.0000
vn -0.0922 0.9957 -0.0000
vn -0.0579 0.9983 -0.0000
vn -0.0234 0.9997 -0.0000
vn 0.0111 0.9999 -0.0000
vn 0.0456 0.9990 -0.0000
vn 0.0800 0.9968 -0.0000
vn 0.1143 0.9935 -0.0000
vn 0.1483 0.9889 -0.0000
vn 0.1820 0.9833 -0.0000
vn 0.2153 0.9765 -0.0000
vn 0.2483 0.9687 -0.0000
vn 0.2807 0.9598 -0.0000
vn 0.3127 0.9499 -0.0000
vn 0.3440 0.9390 -0.0000
vn 0.3747 0.9271 -0.0000
vn 0.4048 0.9144 -0.0000
vn 0.4342 0.9008 -0.0000
vn 0.4628 0.8865 -0.0000
vn 0.4907 0.8713 -0.0000
vn 0.5178 0.8555 -0.0000
vn 0.5441 0.8390 -0.0000
vn 0.5696 0.8219 -0.0000
vn 0.5943 0.8043 -0.0000
vn 0.6167 0.7872 -0.0000
vn 0.4541 0.8910 -0.0000
vt 2.003512 0.980501
vt 1.006197 0.981758
vt 1.006237 1.000903
vt 2.003552 0.999646
vt 2.001470 0.007503
vt 1.004155 0.008760
vt 1.004202 0.031054
vt 2.001517 0.029797
vt 1.004251 0.054323
vt 2.001566 0.053066
vt 1.004300 0.077899
vt 2.001615 0.076642
vt 1.004350 0.101764
vt 2.001665 0.100507
vt 1.004401 0.125899
vt 2.001716 0.124642
vt 1.004452 0.150286
vt 2.001767 0.149029
vt 1.004504 0.174906
vt 2.001818 0.173649
vt 1.004556 0.199741
vt 2.001871 0.198484
vt 1.004609 0.224770
vt 2.001923 0.223514
vt 1.004661 0.249976
vt 2.001976 0.248719
vt 1.004714 0.275338
vt 2.002029 0.274082
vt 1.004768 0.300838
vt 2.002083 0.299581
vt 1.004822 0.326455
vt 2.002137 0.325198
vt 1.004876 0.352170
vt 2.002191 0.350913
vt 1.004930 0.377963
vt 2.002245 0.376706
vt 1.004984 0.403815
vt 2.002299 0.402558
vt 1.005038 0.429705
vt 2.002353 0.428448
vt 1.005093 0.455615
vt 2.002408 0.454358
vt 1.005147 0.481523
vt 2.002462 0.480266
vt 1.005201 0.507410
vt 2.002516 0.506153
vt 1.005256 0.533257
vt 2.002570 0.532000
vt 1.005310 0.559044
vt 2.002625 0.557787
vt 1.005364 0.584750
vt 2.002678 0.583493
vt 1.005417 0.610357
vt 2.002733 0.609100
vt 1.005471 0.635844
vt 2.002786 0.634587
vt 1.005524 0.661192
vt 2.002839 0.659935
vt 1.005577 0.686382
vt 2.002892 0.685125
vt 1.005630 0.711395
vt 2.002944 0.710138
vt 1.005682 0.736211
vt 2.002997 0.734954
vt 1.005733 0.760812
vt 2.003048 0.759555
vt 1.005785 0.785178
vt 2.003099 0.783921
vt 1.005835 0.809292
vt 2.003150 0.808035
vt 1.005885 0.833135
vt 2.003200 0.831877
vt 1.005934 0.856687
vt 2.003249 0.855430
vt 1.005983 0.879933
vt 2.003298 0.878676
vt 1.006031 0.902854
vt 2.003346 0.901597
vt 1.006077 0.924324
vt 2.003392 0.923067
vt 1.006117 0.943469
vt 2.003431 0.942212
vt 1.006157 0.962613
vt 2.003472 0.961356
vt -0.001369 2.013053
vt -0.001142 0.995114
vt 1.000881 1.032454
vt 1.000654 2.050395
vt 0.001966 -1.025998
vt 0.005571 -2.013108
vt 1.004719 -2.006239
vt 1.001115 -1.019129
vt 1.001573 -1.015566
vt 1.001573 -0.024389
vt 0.003021 -0.024389
vt 0.003021 -1.015565
vt 0.999148 2.061514
vt 0.999108 3.014595
vt 0.000533 3.009109
vt 0.000573 2.056027
vt -0.973501 1.001801
vt -0.970051 -0.003618
vt 0.002512 -0.001977
vt -0.000938 1.003441
vt 1.009474 1.003013
vt 0.006766 1.002207
vt -0.001178 0.001860
vt 1.001530 0.002666
s 0
usemtl front1
f 92/105/44 88/106/44 86/107/44 90/108/44
usemtl front2
f 44/1/1 45/2/1 4/3/1 2/4/1
f 1/5/2 3/6/2 84/7/2 5/8/2
f 5/8/3 84/7/3 83/9/3 6/10/3
f 6/10/4 83/9/4 82/11/4 7/12/4
f 7/12/5 82/11/5 81/13/5 8/14/5
f 8/14/6 81/13/6 80/15/6 9/16/6
f 9/16/7 80/15/7 79/17/7 10/18/7
f 10/18/8 79/17/8 78/19/8 11/20/8
f 11/20/9 78/19/9 77/21/9 12/22/9
f 12/22/10 77/21/10 76/23/10 13/24/10
f 13/24/11 76/23/11 75/25/11 14/26/11
f 14/26/12 75/25/12 74/27/12 15/28/12
f 15/28/13 74/27/13 73/29/13 16/30/13
f 16/30/14 73/29/14 72/31/14 17/32/14
f 17/32/15 72/31/15 71/33/15 18/34/15
f 18/34/16 71/33/16 70/35/16 19/36/16
f 19/36/17 70/35/17 69/37/17 20/38/17
f 20/38/18 69/37/18 68/39/18 21/40/18
f 21/40/19 68/39/19 67/41/19 22/42/19
f 22/42/20 67/41/20 66/43/20 23/44/20
f 23/44/21 66/43/21 65/45/21 24/46/21
f 24/46/22 65/45/22 64/47/22 25/48/22
f 25/48/23 64/47/23 63/49/23 26/50/23
f 26/50/24 63/49/24 62/51/24 27/52/24
f 27/52/25 62/51/25 61/53/25 28/54/25
f 28/54/26 61/53/26 60/55/26 29/56/26
f 29/56/27 60/55/27 59/57/27 30/58/27
f 30/58/28 59/57/28 58/59/28 31/60/28
f 31/60/29 58/59/29 57/61/29 32/62/29
f 32/62/30 57/61/30 56/63/30 33/64/30
f 33/64/31 56/63/31 55/65/31 34/66/31
f 34/66/32 55/65/32 54/67/32 35/68/32
f 35/68/33 54/67/33 53/69/33 36/70/33
f 36/70/34 53/69/34 52/71/34 37/72/34
f 37/72/35 52/71/35 51/73/35 38/74/35
f 38/74/36 51/73/36 50/75/36 39/76/36
f 39/76/37 50/75/37 49/77/37 40/78/37
f 40/78/38 49/77/38 48/79/38 41/80/38
f 41/80/1 48/79/1 47/81/1 42/82/1
f 42/82/1 47/81/1 46/83/1 43/84/1
f 43/84/1 46/83/1 45/2/1 44/1/1
f 93/5/46 97/8/46 176/7/46 95/6/46
usemtl side01
f 91/93/41 92/94/41 90/95/41 89/96/41
usemtl side02
f 85/85/39 86/86/39 88/87/39 87/88/39
usemtl side03
f 87/89/40 88/90/40 92/91/40 91/92/40
f 89/97/42 90/98/42 86/99/42 85/100/42
usemtl back1
f 87/101/43 91/102/43 89/103/43 85/104/43
usemtl back2
f 136/1/45 94/4/45 96/3/45 137/2/45
f 97/8/47 98/10/47 175/9/47 176/7/47
f 98/10/48 99/12/48 174/11/48 175/9/48
f 99/12/49 100/14/49 173/13/49 174/11/49
f 100/14/50 101/16/50 172/15/50 173/13/50
f 101/16/51 102/18/51 171/17/51 172/15/51
f 102/18/52 103/20/52 170/19/52 171/17/52
f 103/20/53 104/22/53 169/21/53 170/19/53
f 104/22/54 105/24/54 168/23/54 169/21/54
f 105/24/55 106/26/55 167/25/55 168/23/55
f 106/26/56 107/28/56 166/27/56 167/25/56
f 107/28/57 108/30/57 165/29/57 166/27/57
f 108/30/58 109/32/58 164/31/58 165/29/58
f 109/32/59 110/34/59 163/33/59 164/31/59
f 110/34/60 111/36/60 162/35/60 163/33/60
f 111/36/61 112/38/61 161/37/61 162/35/61
f 112/38/62 113/40/62 160/39/62 161/37/62
f 113/40/63 114/42/63 159/41/63 160/39/63
f 114/42/64 115/44/64 158/43/64 159/41/64
f 115/44/65 116/46/65 157/45/65 158/43/65
f 116/46/66 117/48/66 156/47/66 157/45/66
f 117/48/67 118/50/67 155/49/67 156/47/67
f 118/50/68 119/52/68 154/51/68 155/49/68
f 119/52/69 120/54/69 153/53/69 154/51/69
f 120/54/70 121/56/70 152/55/70 153/53/70
f 121/56/71 122/58/71 151/57/71 152/55/71
f 122/58/72 123/60/72 150/59/72 151/57/72
f 123/60/73 124/62/73 149/61/73 150/59/73
f 124/62/74 125/64/74 148/63/74 149/61/74
f 125/64/75 126/66/75 147/65/75 148/63/75
f 126/66/76 127/68/76 146/67/76 147/65/76
f 127/68/77 128/70/77 145/69/77 146/67/77
f 128/70/78 129/72/78 144/71/78 145/69/78
f 129/72/79 130/74/79 143/73/79 144/71/79
f 130/74/80 131/76/80 142/75/80 143/73/80
f 131/76/81 132/78/81 141/77/81 142/75/81
f 132/78/82 133/80/82 140/79/82 141/77/82
f 133/80/45 134/82/45 139/81/45 140/79/45
f 134/82/45 135/84/45 138/83/45 139/81/45
f 135/84/83 136/1/83 137/2/83 138/83/83
f 220/1/1 221/2/1 180/3/1 178/4/1
f 177/5/2 179/6/2 260/7/2 181/8/2
f 181/8/3 260/7/3 259/9/3 182/10/3
f 182/10/4 259/9/4 258/11/4 183/12/4
f 183/12/5 258/11/5 257/13/5 184/14/5
f 184/14/6 257/13/6 256/15/6 185/16/6
f 185/16/7 256/15/7 255/17/7 186/18/7
f 186/18/8 255/17/8 254/19/8 187/20/8
f 187/20/9 254/19/9 253/21/9 188/22/9
f 188/22/10 253/21/10 252/23/10 189/24/10
f 189/24/11 252/23/11 251/25/11 190/26/11
f 190/26/12 251/25/12 250/27/12 191/28/12
f 191/28/13 250/27/13 249/29/13 192/30/13
f 192/30/14 249/29/14 248/31/14 193/32/14
f 193/32/15 248/31/15 247/33/15 194/34/15
f 194/34/16 247/33/16 246/35/16 195/36/16
f 195/36/17 246/35/17 245/37/17 196/38/17
f 196/38/18 245/37/18 244/39/18 197/40/18
f 197/40/19 244/39/19 243/41/19 198/42/19
f 198/42/20 243/41/20 242/43/20 199/44/20
f 199/44/21 242/43/21 241/45/21 200/46/21
f 200/46/22 241/45/22 240/47/22 201/48/22
f 201/48/23 240/47/23 239/49/23 202/50/23
f 202/50/24 239/49/24 238/51/24 203/52/24
f 203/52/25 238/51/25 237/53/25 204/54/25
f 204/54/26 237/53/26 236/55/26 205/56/26
f 205/56/27 236/55/27 235/57/27 206/58/27
f 206/58/28 235/57/28 234/59/28 207/60/28
f 207/60/29 234/59/29 233/61/29 208/62/29
f 208/62/30 233/61/30 232/63/30 209/64/30
f 209/64/31 232/63/31 231/65/31 210/66/31
f 210/66/32 231/65/32 230/67/32 211/68/32
f 211/68/33 230/67/33 229/69/33 212/70/33
f 212/70/34 229/69/34 228/71/34 213/72/34
f 213/72/35 228/71/35 227/73/35 214/74/35
f 214/74/36 227/73/36 226/75/36 215/76/36
f 215/76/37 226/75/37 225/77/37 216/78/37
f 216/78/38 225/77/38 224/79/38 217/80/38
f 217/80/1 224/79/1 223/81/1 218/82/1
f 218/82/1 223/81/1 222/83/1 219/84/1
f 219/84/1 222/83/1 221/2/1 220/1/1
o Cube
v -4.856444 -0.299628 1.769886
v -4.856444 -0.272153 1.769886
v -4.856444 -0.299628 -1.766273
v -4.856444 -0.272153 -1.766273
v 2.524197 -0.299628 1.769886
v 2.524197 -0.272153 1.769886
v 2.524197 -0.299628 -1.766273
v 2.524197 -0.272153 -1.766273
vn -1.0000 -0.0000 -0.0000
vn -0.0000 -0.0000 -1.0000
vn 1.0000 -0.0000 -0.0000
vn -0.0000 -0.0000 1.0000
vn -0.0000 -1.0000 -0.0000
vn -0.0000 1.0000 -0.0000
vt -0.405203 0.000000
vt -0.155203 0.000000
vt -0.155203 0.250000
vt -0.405203 0.250000
vt -0.155203 0.500000
vt -0.405203 0.500000
vt -0.155203 0.750000
vt -0.405203 0.750000
vt -0.155203 1.000000
vt -0.405203 1.000000
vt -0.655203 0.500000
vt -0.655203 0.750000
vt 0.002612 0.014167
vt 1.002625 0.014167
vt 1.002625 0.996228
vt 0.002612 0.996228
s 0
usemtl base
f 261/109/84 262/110/84 264/111/84 263/112/84
f 263/112/85 264/111/85 268/113/85 267/114/85
f 267/114/86 268/113/86 266/115/86 265/116/86
f 265/116/87 266/115/87 262/117/87 261/118/87
f 263/119/88 267/114/88 265/116/88 261/120/88
usemtl image
f 268/121/89 264/122/89 262/123/89 266/124/89
